<?xml version="1.0" encoding="UTF-8"?>
<svg id="Layer_2" data-name="Layer 2" xmlns="http://www.w3.org/2000/svg" viewBox="0 0 380 296.17">
  <defs>
    <style>
      .cls-1 {
        stroke-width: 0px;
      }
    </style>
  </defs>
  <g id="Layer_1-2" data-name="Layer 1">
    <path id="CapCut_Logo" data-name="CapCut Logo" class="cls-1" d="M379.97,1.88l-71.8,38.18C305.12,17.44,285.79,0,262.34,0H46.3C20.74-.03,0,20.71,0,46.27v45.96l105.01,55.84L0,203.91v45.96c0,25.56,20.74,46.3,46.3,46.3h216.07c23.46,0,42.78-17.44,45.84-40.06l71.8,38.18v-52.44l-176.34-93.77,176.34-93.77V1.88h-.03ZM276.29,239.12H32.38l121.95-64.85s121.95,64.85,121.95,64.85ZM154.33,121.86L26.58,53.92h255.48l-127.76,67.94h.03Z"/>
  </g>
</svg>